<svg version="1.1" xmlns="http://www.w3.org/2000/svg" xmlns:xlink="http://www.w3.org/1999/xlink" width="512.000000pt" height="512.000000pt" viewBox="0,0,256,256"><g fill="#e4e4e4" fill-rule="nonzero" stroke="none" stroke-width="1" stroke-linecap="butt" stroke-linejoin="miter" stroke-miterlimit="10" stroke-dasharray="" stroke-dashoffset="0" font-family="none" font-weight="none" font-size="none" text-anchor="none" style="mix-blend-mode: normal"><g transform="translate(0.13585,0.02483) scale(0.5,0.5)"><g transform="translate(0,512) scale(0.1,-0.1)"><path d="M874,5105c-159,-35 -304,-167 -348,-318c-10,-37 -15,-41 -78,-62c-118,-40 -189,-92 -258,-191c-82,-117 -75,77 -75,-2159c0,-1924 1,-1992 19,-2045c41,-118 119,-212 224,-268c120,-64 52,-62 1642,-62c1575,0 1523,-1 1633,57c108,58 214,190 233,290c5,28 11,33 43,39c108,19 259,132 310,233c53,102 51,59 51,1194v1057h129h128l219,141c121,77 227,150 237,161c24,29 22,80 -5,106c-13,11 -120,84 -237,161l-215,141h-128h-128v238v239l-29,39c-17,21 -250,261 -518,532l-488,493l-1150,-1c-915,-1 -1162,-4 -1211,-15zM3140,4565c0,-359 1,-388 20,-438c24,-63 76,-117 145,-149c49,-23 58,-23 428,-26l377,-3v-185v-184h-1349c-1336,0 -1349,0 -1374,-20c-14,-11 -28,-33 -32,-48l-6,-28l-122,4c-207,7 -213,-1 -204,-280c3,-103 11,-196 16,-207c17,-30 66,-41 192,-41c118,0 119,0 125,-25c13,-51 47,-65 155,-65h99v-77c1,-120 51,-203 133,-218c18,-3 265,-5 550,-3l519,3l19,24c27,34 25,82 -7,112l-26,24l-509,3l-509,3v64v65h1165h1165l-2,-1052l-3,-1053l-24,-53c-29,-65 -95,-124 -167,-152c-54,-20 -71,-20 -1524,-20c-1426,0 -1471,1 -1520,19c-75,29 -138,85 -169,150l-26,56l-3,1950c-2,1371 1,1966 9,2002c19,97 110,195 203,222c18,5 509,10 1144,10l1112,1zM3871,4238l111,-118h-295c-315,0 -333,2 -364,49c-16,23 -18,59 -21,341l-2,315l230,-235c126,-129 280,-288 341,-352zM510,2662c0,-1846 1,-1911 19,-1964c28,-81 48,-116 99,-170c52,-56 136,-108 214,-135c50,-17 138,-18 1456,-21c771,-1 1402,-5 1402,-8c0,-2 -9,-21 -19,-42c-24,-47 -73,-93 -131,-123l-45,-24h-1505h-1505l-51,27c-28,15 -70,48 -92,73c-78,89 -72,-91 -72,2100c0,2177 -5,2010 67,2094c34,40 124,101 151,101c9,0 12,-388 12,-1908zM4418,3228l-3,-193l-1447,-3l-1448,-2v195v195h1450h1450zM4693,3272c37,-25 67,-48 67,-51c0,-7 -164,-111 -174,-111c-3,0 -6,52 -6,115v116l23,-12c12,-7 52,-32 90,-57zM1350,3225v-95h-80h-80v95v95h80h80z"></path><path d="M1052,2327c-30,-32 -29,-81 3,-112l24,-25h708c541,1 712,4 724,13c27,20 41,56 34,88c-14,62 20,59 -760,59h-712z"></path><path d="M1055,1925c-33,-32 -34,-83 -2,-113l23,-22h1215h1216l21,23c32,34 30,89 -4,116c-27,21 -28,21 -1236,21h-1209z"></path><path d="M1075,1538c-31,-17 -45,-39 -45,-72c1,-38 18,-62 54,-76c39,-15 2372,-14 2415,1c45,16 64,63 45,114c-18,46 14,45 -1256,45c-844,-1 -1199,-4 -1213,-12z"></path><path d="M1090,1143c-80,-29 -78,-138 2,-158c13,-3 562,-4 1221,-3l1199,3l19,24c21,25 25,71 9,101c-5,10 -24,23 -41,29c-33,11 -2378,15 -2409,4z"></path></g></g></g></svg>